<?xml version="1.0" encoding="UTF-8"?>
<svg id="Capa_2" data-name="Capa 2" xmlns="http://www.w3.org/2000/svg" viewBox="0 0 730.61 80.92">
  <defs>
    <style>
      .cls-1 {
        fill: #1d1d1b;
        stroke-width: 0px;
      }
    </style>
  </defs>
  <g id="Capa_8" data-name="Capa 8">
    <g>
      <path class="cls-1" d="m194.76.23c6.53,1.8,12.97,3.83,18.34,8.12,3.1,2.48,5.81,5.1,2.46,9.39-4.64,5.96-7.91,7.36-12.57,4.09-8.79-6.16-18.01-6.86-27.52-2.52-9.77,4.45-14.12,15.65-11.39,27.82,2.17,9.65,10.59,16.31,20.93,16.93,6.61.4,12.45-.99,17.84-4.97,4.65-3.43,8.27-1.98,12.86,4.22,3.26,4.4.29,6.94-2.77,9.35-15.86,12.55-43.79,10.45-58.24-4.34-14.83-15.17-14.95-39.45-.2-55.69,6.2-6.82,14.6-9.75,23.17-12.29l17.09-.15Z"/>
      <path class="cls-1" d="m0,4.16C4.65-.15,10.31.95,15.62,1.82c3.97.65,3.82,4.42,3.82,7.6,0,15.21-.01,30.42.02,45.63.02,8.22.6,8.77,9.13,8.8,7.39.03,14.79.11,22.18,0,5.66-.09,7.98,2.53,7.96,8.01-.02,6.78-3.91,8.6-12.01,7.47-11.5-1.6-23.16-1.84-34.63-.05-4.92.77-8.92.49-12.08-2.53V4.16Z"/>
      <path class="cls-1" d="m289.06,0c23.01,5.96,26.53,24.67,21.63,37.09-4.4,11.16-17.25,18.62-29.5,17.1-14.92-1.84-24.79-10.67-26.38-23.57-1.61-13.1,5.67-24.37,18.81-29.12.57-.2,1.13-.42,1.69-.63l13.74-.88Zm6.3,26.77c-.06-6.57-5.54-12.21-11.76-12.08-6.66.14-11.93,5.9-11.76,12.86.17,6.89,5.2,11.61,12.17,11.41,6.94-.19,11.41-4.99,11.35-12.2Z"/>
      <path class="cls-1" d="m718.23,38.75c4.46,2.9,8.6,5.75,10.65,10.61,4.81,11.44-.73,23.68-12.95,27.52-4.57,1.44-9.48,2.35-14.27,2.49-12.23.37-24.48.15-36.72.23-4.68.03-7-1.99-6.98-6.76.06-21.65.04-43.31.02-64.96,0-3.6,1.29-6.4,5.25-6.43,13.92-.12,27.88-1.04,41.74.45,8.9.96,16.92,4.42,20.35,13.63,3.4,9.15-.09,16.6-7.08,23.22Zm-25.62,8.37c-4.33,0-7.28,0-10.24,0-2.69,0-4.59,1.17-4.75,3.93-.19,3.31-.15,6.65.03,9.96.11,2.07,1.8,3.69,3.87,3.75,7.68.22,15.41,1.21,22.99-.87,3.88-1.07,6.27-3.76,6.44-7.61.16-3.92-2.31-6.49-5.95-8-4.47-1.86-9.16-.95-12.38-1.16Zm-2.14-14.43s0-.1,0-.14c2.74,0,5.5.22,8.21-.05,4.39-.44,7.79-2.54,8.14-7.22.35-4.57-2.29-7.24-6.75-8.45-6.03-1.63-12.14-.89-18.21-.81-2.36.03-3.68,1.52-4.28,3.85-2.38,9.25.27,12.79,9.74,12.82,1.05,0,2.11,0,3.16,0Z"/>
      <path class="cls-1" d="m356.1,40.3c0-10.63.02-21.25,0-31.88-.01-3.76,1.08-6.98,5.42-6.96,12.86.05,25.77-1.3,38.56.88,11.43,1.95,20.25,7.6,23.52,19.13,3.36,11.84.73,22.33-9.36,30.23-3.53,2.76-3.21,5.42-.94,8.58,2.68,3.74,5.48,7.42,7.89,11.33,2.96,4.79,1.47,7.39-4.03,7.99-7.01.76-12.88-.36-16.41-7.44-1.75-3.51-4.59-6.48-6.79-9.78-1.73-2.6-3.76-4.09-7.18-4.21-10.56-.37-11.01-.09-11.08,10.47-.07,10.09-5.95,14.05-15.72,10.63-3.5-1.22-3.87-4.02-3.87-7.08,0-10.63,0-21.25,0-31.88Zm19.57-10.16q0,12.56,12.66,12.44c2.09-.02,4.22-.08,6.25-.5,4.3-.89,7.76-2.95,9.57-7.22,3.64-8.59-.97-15.3-11.85-17.12-15.21-2.55-16.63-1.49-16.63,12.41Z"/>
      <path class="cls-1" d="m584.78,1.53c6.39-1.42,9.72,1.44,12.2,7.08,9.06,20.63,18.56,41.07,27.84,61.61,2.83,6.27,1.1,9.01-5.71,9.38-9.69.53-10.75.23-14-8.81-2.12-5.93-5.51-8.15-11.74-7.66s-11.88.46-17.81-.01c-6.61-.53-10.38,1.64-12.66,8.13-3.02,8.6-4.37,8.95-13.66,8.34-6.14-.4-8.03-2.94-5.58-8.61,5.87-13.6,12.06-27.06,18.13-40.57,3-6.66,6.39-13.17,8.95-19.99,2.54-6.74,6.27-10.81,14.03-8.89Zm-.38,46.38c3.01-1.03,9.84,2.39,8.39-5.53-.81-4.4-3.07-8.65-5.23-12.68-1.87-3.49-4.74-3.47-6.77-.03-1.58,2.67-2.57,5.7-3.76,8.59-3.47,8.44-2.63,9.62,7.36,9.65Z"/>
      <path class="cls-1" d="m460.12,40.08c0-9.8-.03-19.6,0-29.4.03-8.39,1.06-9.38,9.49-9.39,8.61,0,10.05,1.3,10.09,9.7.06,15.01.22,30.03-.08,45.04-.12,5.97,1.96,8.24,8.07,7.93,7.8-.39,15.64.01,23.46-.11,5.51-.08,7.58,2.86,7.59,7.79,0,5.01-1.93,8.24-8.03,7.96-14.37-.66-28.74-.64-43.11-.02-5.26.23-7.5-2.16-7.48-6.97.05-10.84.02-21.69.02-32.53,0,0-.01,0-.02,0Z"/>
      <path class="cls-1" d="m109.28,40.49c0,10.19.09,20.38-.03,30.57-.09,7.37-1.76,8.62-10.52,8.55-7.79-.06-9-1.12-9.02-8.55-.05-20.38-.06-40.76,0-61.14.02-7.43,1.48-8.62,9.71-8.63,8.05,0,9.74,1.37,9.83,8.62.12,10.19.03,20.38.03,30.57Z"/>
      <path class="cls-1" d="m283.46,79.57c-6.34,0-12.67,0-19.01,0-5.61.01-7.17-3.32-7.14-8.17.03-4.77,2.05-7.52,7.15-7.52,12.88,0,25.77-.02,38.65.02,5.25.02,6.79,3.17,6.77,7.82-.01,4.62-1.52,7.78-6.78,7.82-6.55.04-13.09.01-19.64.02Z"/>
    </g>
  </g>
</svg>