<svg xmlns="http://www.w3.org/2000/svg" viewBox="0 0 120 120">
  <rect width="120" height="120" rx="22" fill="#e71f46"/>
  <!-- LicorLab bottle icon (white, centered and scaled to fit) -->
  <g transform="translate(31, 14) scale(1.0)">
    <path fill="white" d="m34.47,0c23.01,5.96,26.53,24.67,21.63,37.09-4.4,11.16-17.25,18.62-29.5,17.1C11.68,52.35,1.81,43.53.22,30.63-1.39,17.52,5.89,6.26,19.03,1.51c.57-.2,1.13-.42,1.69-.63l13.74-.88Zm6.3,26.77c-.06-6.57-5.54-12.21-11.76-12.08-6.66.14-11.93,5.9-11.76,12.86.17,6.89,5.2,11.61,12.17,11.41,6.94-.19,11.41-4.99,11.35-12.2Z"/>
    <path fill="white" d="m28.88,79.57c-6.34,0-12.67,0-19.01,0-5.61.01-7.17-3.32-7.14-8.17.03-4.77,2.05-7.52,7.15-7.52,12.88,0,25.77-.02,38.65.02,5.25.02,6.79,3.17,6.77,7.82-.01,4.62-1.52,7.78-6.78,7.82-6.55.04-13.09.01-19.64.02Z"/>
  </g>
</svg>
